<?xml version="1.0" encoding="UTF-8"?>
<svg width="20px" height="20px" viewBox="0 0 20 20" version="1.1" xmlns="http://www.w3.org/2000/svg" xmlns:xlink="http://www.w3.org/1999/xlink">
    <title>Filled_Icons</title>
    <g id="Page-1" stroke="none" stroke-width="1" fill="none" fill-rule="evenodd">
        <g id="paragraph-normal" transform="translate(-2.000000, -2.000000)" fill="#757575" fill-rule="nonzero">
            <g id="Filled_Icons" transform="translate(2.000000, 2.000000)">
                <path d="M18,0 L2,0 C0.897,0 0,0.897 0,2 L0,18 C0,19.103 0.897,20 2,20 L18,20 C19.103,20 20,19.103 20,18 L20,2 C20,0.897 19.103,0 18,0 Z M13,15 L4,15 L4,13 L13,13 L13,15 Z M16,11 L4,11 L4,9 L16,9 L16,11 Z M16,7 L4,7 L4,5 L16,5 L16,7 Z" id="Shape"></path>
            </g>
        </g>
    </g>
</svg>