<?xml version="1.0" encoding="UTF-8"?>
<svg width="221px" height="48px" viewBox="0 0 221 48" version="1.1" xmlns="http://www.w3.org/2000/svg" xmlns:xlink="http://www.w3.org/1999/xlink">
    <title>Group</title>
    <g id="--------" stroke="none" stroke-width="1" fill="none" fill-rule="evenodd">
        <g id="MIB-logos/logo-lockup-vert">
            <g id="MIBEHR_Final-Logo_Tagline" transform="translate(-0.000000, 0.000000)">
                <g id="Group">
                    <path d="M108.468317,0.562376238 C111.491089,2.81188119 113.810891,6.04554455 114.79505,9.84158416 L137.360396,9.84158416 L137.360396,0.562376238 L108.468317,0.562376238 Z" id="Shape" fill="#6FBE46" fill-rule="nonzero"></path>
                    <path d="M114.724752,18.6287129 C114.30297,20.1752475 113.670297,21.6514851 112.826733,23.0574257 C113.810891,24.5336634 114.513861,26.150495 115.005941,27.9079208 L137.360396,27.9079208 L137.360396,18.6287129 L114.724752,18.6287129 Z" id="Shape" fill="#6FBE46" fill-rule="nonzero"></path>
                    <path d="M114.935644,37.1871287 C113.881188,40.9831683 111.561386,44.2168317 108.538614,46.4663366 L137.290099,46.4663366 L137.290099,37.1871287 L114.935644,37.1871287 Z" id="Shape" fill="#6FBE46" fill-rule="nonzero"></path>
                    <polygon id="Shape" fill="#00534C" fill-rule="nonzero" points="0.632673267 0.562376238 15.9574257 0.562376238 26.5722772 30.5792079 26.7128713 30.5792079 37.3980198 0.562376238 52.6524752 0.562376238 52.6524752 46.5366337 42.529703 46.5366337 42.529703 11.2475248 42.3891089 11.2475248 30.2980198 46.5366337 22.5653465 46.5366337 10.8960396 11.2475248 10.7554455 11.2475248 10.7554455 46.5366337 0.632673267 46.5366337"></polygon>
                    <polygon id="Shape" fill="#00534C" fill-rule="nonzero" points="56.3782178 0.562376238 66.5009901 0.562376238 66.5009901 46.5366337 56.3782178 46.5366337 56.3782178 0.562376238"></polygon>
                    <polygon id="Shape" fill="#6FBE46" fill-rule="nonzero" points="140.383168 0.702970297 150.505941 0.702970297 150.505941 18.2772277 169.415842 18.2772277 169.415842 0.702970297 179.538614 0.702970297 179.538614 46.6772277 169.415842 46.6772277 169.415842 27.7673267 150.505941 27.7673267 150.505941 46.6772277 140.383168 46.6772277"></polygon>
                    <path d="M183.053465,0.702970297 L200.838614,0.702970297 C203.158416,0.702970297 205.407921,0.913861386 207.516832,1.40594059 C209.625743,1.82772277 211.453465,2.6009901 213.070297,3.65544554 C214.616832,4.70990099 215.882178,6.11584158 216.866337,7.94356436 C217.780198,9.77128713 218.272277,11.950495 218.272277,14.6920792 C218.272277,17.9257426 217.428713,20.6673267 215.741584,22.9871287 C214.054455,25.2366337 211.594059,26.7128713 208.360396,27.2752475 L220.029703,46.6772277 L207.868317,46.6772277 L198.237624,28.329703 L193.246535,28.329703 L193.246535,46.7475248 L183.123762,46.7475248 L183.123762,0.702970297 L183.053465,0.702970297 Z M193.176238,19.7534653 L199.151485,19.7534653 C200.065347,19.7534653 201.049505,19.7534653 202.033663,19.6831683 C203.017822,19.6128713 204.00198,19.4019802 204.775248,19.1207921 C205.618812,18.7693069 206.251485,18.2772277 206.813861,17.5742574 C207.376238,16.8712871 207.657426,15.8871287 207.657426,14.6217822 C207.657426,13.4267327 207.446535,12.5128713 206.954455,11.809901 C206.462376,11.1069307 205.9,10.6148515 205.126733,10.1930693 C204.423762,9.84158416 203.509901,9.56039604 202.59604,9.41980198 C201.611881,9.27920792 200.69802,9.20891089 199.784158,9.20891089 L193.176238,9.20891089 L193.176238,19.7534653 L193.176238,19.7534653 Z" id="Shape" fill="#71BF45" fill-rule="nonzero"></path>
                    <g transform="translate(80.138614, 9.138614)" id="Shape">
                        <path d="M17.3633663,9.27920792 L18.909901,9.20891089 C21.0891089,8.9980198 22.7762376,7.17029703 22.7762376,4.92079208 C22.7762376,2.6009901 20.8782178,0.632673267 18.5584158,0.632673267 L18.4881188,0.632673267 L16.3089109,0.632673267 L16.3089109,0.632673267 L0.210891089,0.632673267 L0.210891089,9.27920792 L14.4811881,9.27920792 L17.3633663,9.27920792 Z"></path>
                        <path d="M18.5584158,18.6287129 C18.5584158,18.6287129 18.5584158,18.6287129 18.5584158,18.6287129 C18.4881188,18.6287129 18.4881188,18.6287129 18.5584158,18.6287129 L14.4811881,18.6990099 L14.4811881,18.6990099 L0.210891089,18.6990099 L0.210891089,18.6990099 L0.210891089,18.6990099 L0.210891089,28.0485149 L0.210891089,28.0485149 L0.210891089,28.0485149 L16.3089109,28.0485149 L16.3089109,28.0485149 L18.6287129,27.9782178 L18.5584158,27.9782178 C21.0891089,27.9782178 23.1277228,25.8693069 23.1277228,23.3386139 C23.1277228,20.7376238 21.0891089,18.6287129 18.5584158,18.6287129 Z"></path>
                    </g>
                    <path d="M108.890099,22.9871287 C110.928713,20.5970297 112.123762,17.5039604 112.123762,14.129703 C112.123762,6.60792079 106.078218,0.562376238 98.6267327,0.562376238 C98.2049505,0.562376238 70.2267327,0.562376238 70.2267327,0.562376238 L70.2267327,46.5366337 L96.4475248,46.5366337 L96.4475248,46.5366337 C97.7831683,46.5366337 98.2752475,46.5366337 98.6970297,46.5366337 C106.289109,46.5366337 112.475248,40.209901 112.475248,32.4772277 C112.40495,28.8217822 111.069307,25.5178218 108.890099,22.9871287 Z M80.349505,9.84158416 L98.6970297,9.84158416 C101.016832,9.84158416 102.914851,11.739604 102.914851,14.129703 C102.914851,16.3792079 101.227723,18.2069307 99.0485149,18.4178218 L97.5019802,18.4881188 L94.619802,18.5584158 L80.349505,18.5584158 L80.349505,9.84158416 Z M98.6970297,37.1168317 L98.7673267,37.1168317 L96.4475248,37.1871287 L96.4475248,37.1871287 L80.349505,37.1871287 L80.349505,37.1871287 L80.349505,37.1871287 L80.349505,27.8376238 L80.349505,27.8376238 L80.349505,27.8376238 L94.619802,27.8376238 L98.6267327,27.7673267 C98.6267327,27.7673267 98.6267327,27.7673267 98.6267327,27.7673267 C98.6267327,27.7673267 98.6267327,27.7673267 98.6267327,27.7673267 C101.157426,27.7673267 103.19604,29.8762376 103.19604,32.4069307 C103.266337,35.0079208 101.227723,37.1168317 98.6970297,37.1168317 Z" id="Shape" fill="#00534C" fill-rule="nonzero"></path>
                </g>
            </g>
        </g>
    </g>
</svg>